<svg width="31" height="31" viewBox="0 0 31 31" fill="none" xmlns="http://www.w3.org/2000/svg">
<path d="M13.2678 15.7222L10.8133 13.2678L9.47705 14.604L13.2678 18.3947L20.8492 10.8133L19.513 9.47705L13.2678 15.7222Z" fill="#28574E"/>
<path d="M15.1629 28.4305L9.31006 25.3098C7.64137 24.4223 6.24593 23.097 5.27355 21.4763C4.30116 19.8556 3.78856 18.0007 3.79078 16.1107V3.79086C3.79078 3.28818 3.99047 2.80609 4.34592 2.45064C4.70136 2.0952 5.18345 1.89551 5.68613 1.89551H24.6397C25.1424 1.89551 25.6245 2.0952 25.9799 2.45064C26.3354 2.80609 26.535 3.28818 26.535 3.79086V16.1107C26.5373 18.0007 26.0247 19.8556 25.0523 21.4763C24.0799 23.097 22.6845 24.4223 21.0158 25.3098L15.1629 28.4305ZM5.68613 3.79086V16.1107C5.68508 17.657 6.10489 19.1744 6.90056 20.5003C7.69624 21.8262 8.83776 22.9106 10.2028 23.6371L15.1629 26.2821L20.1231 23.6381C21.4882 22.9115 22.6298 21.827 23.4255 20.5009C24.2212 19.1748 24.6409 17.6572 24.6397 16.1107V3.79086H5.68613Z" fill="#28574E"/>
</svg>
