<svg width="22" height="23" viewBox="0 0 22 23" fill="none" xmlns="http://www.w3.org/2000/svg">
<path d="M17.1111 0C18.4556 0 19.6065 0.478704 20.5639 1.43611C21.5213 2.39352 22 3.54444 22 4.88889C22 5.11296 21.9847 5.41343 21.9542 5.79028C21.9236 6.16713 21.8778 6.6 21.8167 7.08889L20.1361 19.4028C20.0343 20.1769 19.6829 20.8083 19.0819 21.2972C18.481 21.7861 17.7935 22.0306 17.0194 22.0306C16.5509 22.0306 16.1181 21.9287 15.7208 21.725C15.3236 21.5213 14.9926 21.2361 14.7278 20.8694L11.4583 16.1028C11.4176 16.0213 11.3514 15.9653 11.2597 15.9347C11.1681 15.9042 11.0713 15.8889 10.9694 15.8889C10.888 15.8889 10.725 15.9806 10.4806 16.1639L7.30278 20.7778C7.01759 21.1852 6.6662 21.4958 6.24861 21.7097C5.83102 21.9236 5.38796 22.0306 4.91944 22.0306C4.14537 22.0306 3.46296 21.781 2.87222 21.2819C2.28148 20.7829 1.93519 20.1463 1.83333 19.3722L0.183333 7.08889C0.122222 6.6 0.0763889 6.16713 0.0458333 5.79028C0.0152778 5.41343 0 5.11296 0 4.88889C0 3.54444 0.478704 2.39352 1.43611 1.43611C2.39352 0.478704 3.54444 0 4.88889 0C5.62222 0 6.20787 0.0967593 6.64583 0.290278C7.0838 0.483796 7.50648 0.692593 7.91389 0.916667C8.3213 1.14074 8.75417 1.34954 9.2125 1.54306C9.67083 1.73657 10.2667 1.83333 11 1.83333C11.7333 1.83333 12.3292 1.73657 12.7875 1.54306C13.2458 1.34954 13.6787 1.14074 14.0861 0.916667C14.4935 0.692593 14.9213 0.483796 15.3694 0.290278C15.8176 0.0967593 16.3981 0 17.1111 0ZM17.1111 2.44444C16.6426 2.44444 16.2301 2.5412 15.8736 2.73472C15.5171 2.92824 15.125 3.13704 14.6972 3.36111C14.2694 3.58519 13.7704 3.79398 13.2 3.9875C12.6296 4.18102 11.8963 4.27778 11 4.27778C10.1037 4.27778 9.37037 4.18102 8.8 3.9875C8.22963 3.79398 7.73056 3.58519 7.30278 3.36111C6.875 3.13704 6.48287 2.92824 6.12639 2.73472C5.76991 2.5412 5.35741 2.44444 4.88889 2.44444C4.21667 2.44444 3.6412 2.6838 3.1625 3.1625C2.6838 3.6412 2.44444 4.21667 2.44444 4.88889C2.44444 5.05185 2.45463 5.28611 2.475 5.59167C2.49537 5.89722 2.53611 6.2537 2.59722 6.66111L4.27778 19.0361C4.29815 19.1991 4.36944 19.3264 4.49167 19.4181C4.61389 19.5097 4.75648 19.5556 4.91944 19.5556C5.0213 19.5556 5.11296 19.5352 5.19444 19.4944C5.27593 19.4537 5.33704 19.3926 5.37778 19.3111L8.46389 14.7889C8.74907 14.3815 9.11574 14.0556 9.56389 13.8111C10.012 13.5667 10.4907 13.4444 11 13.4444C11.5093 13.4444 11.988 13.5667 12.4361 13.8111C12.8843 14.0556 13.2509 14.3815 13.5361 14.7889L16.6833 19.4028C16.7241 19.4639 16.775 19.5097 16.8361 19.5403C16.8972 19.5708 16.9685 19.5861 17.05 19.5861C17.213 19.5861 17.3606 19.5403 17.4931 19.4486C17.6255 19.3569 17.7019 19.2296 17.7222 19.0667L19.4028 6.66111C19.4639 6.2537 19.5046 5.89722 19.525 5.59167C19.5454 5.28611 19.5556 5.05185 19.5556 4.88889C19.5556 4.21667 19.3162 3.6412 18.8375 3.1625C18.3588 2.6838 17.7833 2.44444 17.1111 2.44444Z" fill="#191C1D"/>
</svg>
