<svg width="40" height="32" viewBox="0 0 40 32" fill="none" xmlns="http://www.w3.org/2000/svg">
<g clip-path="url(#clip0_2005_2543)">
<path fill-rule="evenodd" clip-rule="evenodd" d="M14.7931 1.72183C16.6447 -0.870493 20.4975 -0.870493 22.3492 1.72183L22.644 2.13453C22.9698 2.59077 23.517 2.83506 24.0742 2.77316L25.3881 2.62716C28.3453 2.2986 30.8439 4.79724 30.5154 7.75434L30.3694 9.0683C30.3075 9.62552 30.5517 10.1727 31.008 10.4985L31.4207 10.7933C34.013 12.6449 34.013 16.4977 31.4207 18.3495L31.008 18.6443C30.5517 18.97 30.3075 19.5173 30.3694 20.0744L30.5154 21.3884C30.8439 24.3455 28.3453 26.8442 25.3881 26.5156L24.0742 26.3697C23.517 26.3078 22.9698 26.552 22.644 27.0082L22.3492 27.421C20.4975 30.0132 16.6448 30.0132 14.7931 27.421L14.4983 27.0082C14.1724 26.552 13.6253 26.3078 13.068 26.3697L11.7541 26.5156C8.797 26.8442 6.29835 24.3455 6.62691 21.3884L6.77292 20.0744C6.83482 19.5173 6.59053 18.97 6.13429 18.6443L5.72159 18.3495C3.12926 16.4977 3.12926 12.6451 5.72159 10.7933L6.13429 10.4985C6.59053 10.1727 6.83482 9.62552 6.77292 9.06829L6.62691 7.75434C6.29835 4.79724 8.797 2.2986 11.7541 2.62716L13.0681 2.77316C13.6253 2.83506 14.1724 2.59077 14.4983 2.13453L14.7931 1.72183ZM24.3083 10.3818C24.9127 10.9862 24.9127 11.9661 24.3083 12.5705L18.3981 18.4807C17.639 19.24 16.4081 19.24 15.6489 18.4807L12.834 15.6657C12.2296 15.0614 12.2296 14.0814 12.834 13.4771C13.4384 12.8727 14.4182 12.8727 15.0226 13.4771L17.0235 15.478L22.1197 10.3818C22.724 9.77745 23.704 9.77745 24.3083 10.3818Z" fill="#048120"/>
</g>
<defs>
<clipPath id="clip0_2005_2543">
<rect width="40" height="32" fill="white"/>
</clipPath>
</defs>
</svg>
