<svg width="26" height="27" viewBox="0 0 26 27" fill="none" xmlns="http://www.w3.org/2000/svg">
<path d="M4.05 27V21.195C2.7675 20.025 1.77188 18.6581 1.06313 17.0944C0.354375 15.5306 0 13.8825 0 12.15C0 8.775 1.18125 5.90625 3.54375 3.54375C5.90625 1.18125 8.775 0 12.15 0C14.9625 0 17.4544 0.826875 19.6256 2.48062C21.7969 4.13438 23.2087 6.28875 23.8612 8.94375L25.6163 15.8625C25.7288 16.29 25.65 16.6781 25.38 17.0269C25.11 17.3756 24.75 17.55 24.3 17.55H21.6V21.6C21.6 22.3425 21.3356 22.9781 20.8069 23.5069C20.2781 24.0356 19.6425 24.3 18.9 24.3H16.2V27H13.5V21.6H18.9V14.85H22.545L21.2625 9.61875C20.745 7.57125 19.6425 5.90625 17.955 4.62375C16.2675 3.34125 14.3325 2.7 12.15 2.7C9.54 2.7 7.3125 3.61125 5.4675 5.43375C3.6225 7.25625 2.7 9.4725 2.7 12.0825C2.7 13.4325 2.97563 14.715 3.52688 15.93C4.07812 17.145 4.86 18.225 5.8725 19.17L6.75 19.98V27H4.05ZM10.8 17.55H13.5L13.7025 15.8625C13.8825 15.795 14.0456 15.7163 14.1919 15.6263C14.3381 15.5363 14.4675 15.435 14.58 15.3225L16.1325 15.9975L17.4825 13.7025L16.1325 12.69C16.1775 12.51 16.2 12.33 16.2 12.15C16.2 11.97 16.1775 11.79 16.1325 11.61L17.4825 10.5975L16.1325 8.3025L14.58 8.9775C14.4675 8.865 14.3381 8.76375 14.1919 8.67375C14.0456 8.58375 13.8825 8.505 13.7025 8.4375L13.5 6.75H10.8L10.5975 8.4375C10.4175 8.505 10.2544 8.58375 10.1081 8.67375C9.96188 8.76375 9.8325 8.865 9.72 8.9775L8.1675 8.3025L6.8175 10.5975L8.1675 11.61C8.1225 11.79 8.1 11.97 8.1 12.15C8.1 12.33 8.1225 12.51 8.1675 12.69L6.8175 13.7025L8.1675 15.9975L9.72 15.3225C9.8325 15.435 9.96188 15.5363 10.1081 15.6263C10.2544 15.7163 10.4175 15.795 10.5975 15.8625L10.8 17.55ZM12.15 14.175C11.5875 14.175 11.1094 13.9781 10.7156 13.5844C10.3219 13.1906 10.125 12.7125 10.125 12.15C10.125 11.5875 10.3219 11.1094 10.7156 10.7156C11.1094 10.3219 11.5875 10.125 12.15 10.125C12.7125 10.125 13.1906 10.3219 13.5844 10.7156C13.9781 11.1094 14.175 11.5875 14.175 12.15C14.175 12.7125 13.9781 13.1906 13.5844 13.5844C13.1906 13.9781 12.7125 14.175 12.15 14.175Z" fill="#00454B"/>
</svg>
