<svg width="21" height="19" viewBox="0 0 21 19" fill="none" xmlns="http://www.w3.org/2000/svg">
<path d="M2.86364 12.4091C2.06818 12.4091 1.39205 12.1307 0.835227 11.5739C0.278409 11.017 0 10.3409 0 9.54545C0 8.75 0.278409 8.07386 0.835227 7.51705C1.39205 6.96023 2.06818 6.68182 2.86364 6.68182V4.77273C2.86364 4.24773 3.05057 3.7983 3.42443 3.42443C3.7983 3.05057 4.24773 2.86364 4.77273 2.86364H7.63636C7.63636 2.06818 7.91477 1.39205 8.47159 0.835227C9.02841 0.278409 9.70455 0 10.5 0C11.2955 0 11.9716 0.278409 12.5284 0.835227C13.0852 1.39205 13.3636 2.06818 13.3636 2.86364H16.2273C16.7523 2.86364 17.2017 3.05057 17.5756 3.42443C17.9494 3.7983 18.1364 4.24773 18.1364 4.77273V6.68182C18.9318 6.68182 19.608 6.96023 20.1648 7.51705C20.7216 8.07386 21 8.75 21 9.54545C21 10.3409 20.7216 11.017 20.1648 11.5739C19.608 12.1307 18.9318 12.4091 18.1364 12.4091V16.2273C18.1364 16.7523 17.9494 17.2017 17.5756 17.5756C17.2017 17.9494 16.7523 18.1364 16.2273 18.1364H4.77273C4.24773 18.1364 3.7983 17.9494 3.42443 17.5756C3.05057 17.2017 2.86364 16.7523 2.86364 16.2273V12.4091ZM7.63636 10.5C8.03409 10.5 8.37216 10.3608 8.65057 10.0824C8.92898 9.80398 9.06818 9.46591 9.06818 9.06818C9.06818 8.67045 8.92898 8.33239 8.65057 8.05398C8.37216 7.77557 8.03409 7.63636 7.63636 7.63636C7.23864 7.63636 6.90057 7.77557 6.62216 8.05398C6.34375 8.33239 6.20455 8.67045 6.20455 9.06818C6.20455 9.46591 6.34375 9.80398 6.62216 10.0824C6.90057 10.3608 7.23864 10.5 7.63636 10.5ZM13.3636 10.5C13.7614 10.5 14.0994 10.3608 14.3778 10.0824C14.6562 9.80398 14.7955 9.46591 14.7955 9.06818C14.7955 8.67045 14.6562 8.33239 14.3778 8.05398C14.0994 7.77557 13.7614 7.63636 13.3636 7.63636C12.9659 7.63636 12.6278 7.77557 12.3494 8.05398C12.071 8.33239 11.9318 8.67045 11.9318 9.06818C11.9318 9.46591 12.071 9.80398 12.3494 10.0824C12.6278 10.3608 12.9659 10.5 13.3636 10.5ZM6.68182 14.3182H14.3182V12.4091H6.68182V14.3182ZM4.77273 16.2273H16.2273V4.77273H4.77273V16.2273Z" fill="white"/>
</svg>
