<svg width="159" height="38" viewBox="0 0 159 38" fill="none" xmlns="http://www.w3.org/2000/svg">
<rect width="40" height="38" rx="7.5" fill="#28574E"/>
<path d="M19.4999 17.1248V20.6248M21.2499 18.8748H17.7499M22.9999 12.7498V10.9998C22.9999 10.5356 22.8156 10.0905 22.4874 9.76232C22.1592 9.43413 21.7141 9.24976 21.2499 9.24976H17.7499C17.2858 9.24976 16.8407 9.43413 16.5125 9.76232C16.1843 10.0905 15.9999 10.5356 15.9999 10.9998V12.7498M24.7499 12.7498V24.9998M14.2499 12.7498V24.9998M12.4999 12.7498H26.4999C27.4664 12.7498 28.2499 13.5333 28.2499 14.4998V23.2498C28.2499 24.2163 27.4664 24.9998 26.4999 24.9998H12.4999C11.5334 24.9998 10.7499 24.2163 10.7499 23.2498V14.4998C10.7499 13.5333 11.5334 12.7498 12.4999 12.7498Z" stroke="white" stroke-width="1.3125" stroke-linecap="round" stroke-linejoin="round"/>
<path d="M67.6914 10.0938V10.832H65.5039V25.7617H66.9531C67.3359 25.7982 67.582 26.0443 67.6914 26.5H59.625V25.7617H61.8125V12.7734L55.9336 26.7734H55.4414L49.6172 15.4531V25.7617H51.0664C51.4492 25.7982 51.6953 26.0443 51.8047 26.5H46.2812V25.7617H48.4688V10.832H46.2812V10.0938H51.1758L56.918 21.8516L61.8125 10.0938H67.6914ZM74.9102 15.043C73.4518 15.0977 72.6589 16.638 72.5312 19.6641L74.2812 19.7461C75.0104 19.7826 75.5573 19.737 75.9219 19.6094C76.4323 19.4089 76.6875 18.8802 76.6875 18.0234C76.6693 16.0729 76.0768 15.0794 74.9102 15.043ZM80.0234 23.6836C79.9141 23.9753 79.7682 24.2578 79.5859 24.5312C78.6562 26.026 77.125 26.7734 74.9922 26.7734C73.7891 26.7734 72.7135 26.5273 71.7656 26.0352C69.7786 24.9961 68.7852 23.1549 68.7852 20.5117C68.7852 18.8893 69.2227 17.5312 70.0977 16.4375C71.2461 15.0339 72.8503 14.332 74.9102 14.332C76.0404 14.332 77.0521 14.5234 77.9453 14.9062C79.5312 15.6172 80.3242 16.7474 80.3242 18.2969C80.3242 18.6068 80.2695 18.8893 80.1602 19.1445C79.6862 20.1654 77.9818 20.6302 75.0469 20.5391L72.5312 20.457C72.5495 21.5143 72.6406 22.4258 72.8047 23.1914C73.224 25.0508 74.1628 25.9805 75.6211 25.9805C76.0768 25.9805 76.5234 25.8984 76.9609 25.7344C78.0547 25.3333 78.8568 24.5768 79.3672 23.4648L80.0234 23.6836ZM91.2891 26.5L90.9062 23.9297C90.8151 24.1667 90.7057 24.3945 90.5781 24.6133C89.7578 26.0534 88.5 26.7734 86.8047 26.7734C85.7839 26.7734 84.8542 26.4635 84.0156 25.8438C82.5391 24.7682 81.8008 23.1003 81.8008 20.8398C81.8008 19.0169 82.2747 17.5039 83.2227 16.3008C84.3164 14.9701 85.7292 14.3047 87.4609 14.3047C88.7552 14.3047 89.8672 14.7057 90.7969 15.5078V9.4375H88.3086V8.72656H94.2695V25.7617H95.5273C95.6549 25.7617 95.7643 25.7708 95.8555 25.7891C96.0742 25.8438 96.1836 26.0807 96.1836 26.5H91.2891ZM85.5469 20.5117C85.5469 21.2044 85.5924 21.8333 85.6836 22.3984C85.9935 24.4766 86.7865 25.5156 88.0625 25.5156C88.4453 25.5156 88.8008 25.4154 89.1289 25.2148C90.2773 24.4674 90.8516 22.7266 90.8516 19.9922C90.8516 19.3724 90.8151 18.7891 90.7422 18.2422C90.4323 16.2188 89.6211 15.207 88.3086 15.207C87.944 15.207 87.5977 15.2982 87.2695 15.4805C86.1211 16.1732 85.5469 17.8503 85.5469 20.5117ZM103.348 25.7891C103.457 25.7891 103.557 25.7982 103.648 25.8164C103.885 25.8529 104.004 26.0807 104.004 26.5H97.2773V25.7891C97.5143 25.7891 97.724 25.7708 97.9062 25.7344C98.5443 25.625 98.8633 25.1693 98.8633 24.3672V15.4531H97.2773V14.7422H102.336V25.7891H103.348ZM102.582 11.1602C102.582 11.5065 102.491 11.8346 102.309 12.1445C101.926 12.819 101.333 13.1562 100.531 13.1562C100.203 13.1562 99.8841 13.0742 99.5742 12.9102C98.8633 12.5456 98.5078 11.9622 98.5078 11.1602C98.5078 10.8138 98.5898 10.4857 98.7539 10.1758C99.1549 9.46484 99.7474 9.10938 100.531 9.10938C100.878 9.10938 101.206 9.20052 101.516 9.38281C102.227 9.76562 102.582 10.3581 102.582 11.1602Z" fill="#141313"/>
<path d="M119.453 25.4336C117.721 26.3268 115.917 26.7734 114.039 26.7734C111.396 26.7734 109.263 25.9258 107.641 24.2305C106.128 22.6263 105.371 20.6484 105.371 18.2969C105.371 16.3099 105.945 14.5508 107.094 13.0195C108.716 10.8867 111.059 9.82031 114.121 9.82031C116.035 9.82031 117.785 10.2487 119.371 11.1055C119.353 10.8138 119.362 10.5768 119.398 10.3945C119.49 10.1029 119.772 9.95703 120.246 9.95703L120.328 15.3438H119.371C119.079 14.2865 118.742 13.4206 118.359 12.7461C117.539 11.3424 116.272 10.6406 114.559 10.6406C111.314 10.6589 109.682 13.1654 109.664 18.1602C109.664 19.6914 109.773 20.9766 109.992 22.0156C110.576 24.6406 112.025 25.9531 114.34 25.9531C114.923 25.9531 115.452 25.8893 115.926 25.7617C117.639 25.2878 118.833 23.7839 119.508 21.25H120.41V26.6367C120.21 26.6367 120.046 26.6185 119.918 26.582C119.59 26.5091 119.435 26.1263 119.453 25.4336ZM131.566 26.7734C130.108 26.6823 129.188 25.8529 128.805 24.2852C128.714 24.5404 128.595 24.7865 128.449 25.0234C127.72 26.1901 126.581 26.7734 125.031 26.7734C124.521 26.7734 124.056 26.7096 123.637 26.582C122.215 26.1263 121.504 25.0872 121.504 23.4648C121.522 21.0768 123.874 19.8372 128.559 19.7461V17.9688C128.559 17.4401 128.522 16.9844 128.449 16.6016C128.267 15.5625 127.747 15.043 126.891 15.043C126.635 15.043 126.408 15.0885 126.207 15.1797C125.897 15.362 125.642 15.8177 125.441 16.5469C125.368 16.8021 125.314 16.9844 125.277 17.0938C125.004 17.8594 124.475 18.2422 123.691 18.2422C123.509 18.2422 123.336 18.2148 123.172 18.1602C122.497 17.9779 122.16 17.5312 122.16 16.8203C122.16 16.5104 122.242 16.2188 122.406 15.9453C123.044 14.8698 124.603 14.332 127.082 14.332C127.72 14.332 128.312 14.3958 128.859 14.5234C130.974 15.0521 132.031 16.4557 132.031 18.7344V24.4492C132.031 25.3242 132.232 25.7799 132.633 25.8164C133.161 25.7982 133.48 25.1602 133.59 23.9023L134.301 23.9297C134.246 24.4948 134.164 24.9596 134.055 25.3242C133.727 26.2904 132.897 26.7734 131.566 26.7734ZM126.453 25.5977C126.581 25.5977 126.727 25.5703 126.891 25.5156C127.656 25.224 128.212 24.4401 128.559 23.1641V20.5117C127.738 20.5482 127.064 20.6484 126.535 20.8125C125.551 21.1771 125.059 21.9609 125.059 23.1641C125.077 24.75 125.542 25.5612 126.453 25.5977ZM142.066 25.7891C142.176 25.7891 142.276 25.7982 142.367 25.8164C142.604 25.8529 142.723 26.0807 142.723 26.5H134.984V25.7891C135.221 25.7891 135.431 25.7708 135.613 25.7344C136.251 25.625 136.57 25.1693 136.57 24.3672V15.4531H134.984V14.7422H139.77L139.961 17.2852C140.161 16.7747 140.453 16.3008 140.836 15.8633C141.693 14.9701 142.686 14.5234 143.816 14.5234C144.053 14.5234 144.281 14.5508 144.5 14.6055C145.393 14.8424 145.84 15.4167 145.84 16.3281C145.84 16.5833 145.785 16.8294 145.676 17.0664C145.366 17.7591 144.846 18.1055 144.117 18.1055C143.898 18.1055 143.698 18.0781 143.516 18.0234C143.133 17.8776 142.777 17.513 142.449 16.9297C142.212 16.5104 141.993 16.3008 141.793 16.3008C141.684 16.3008 141.565 16.3281 141.438 16.3828C140.635 16.8021 140.171 17.9688 140.043 19.8828V25.7891H142.066ZM152.922 15.043C151.464 15.0977 150.671 16.638 150.543 19.6641L152.293 19.7461C153.022 19.7826 153.569 19.737 153.934 19.6094C154.444 19.4089 154.699 18.8802 154.699 18.0234C154.681 16.0729 154.089 15.0794 152.922 15.043ZM158.035 23.6836C157.926 23.9753 157.78 24.2578 157.598 24.5312C156.668 26.026 155.137 26.7734 153.004 26.7734C151.801 26.7734 150.725 26.5273 149.777 26.0352C147.79 24.9961 146.797 23.1549 146.797 20.5117C146.797 18.8893 147.234 17.5312 148.109 16.4375C149.258 15.0339 150.862 14.332 152.922 14.332C154.052 14.332 155.064 14.5234 155.957 14.9062C157.543 15.6172 158.336 16.7474 158.336 18.2969C158.336 18.6068 158.281 18.8893 158.172 19.1445C157.698 20.1654 155.993 20.6302 153.059 20.5391L150.543 20.457C150.561 21.5143 150.652 22.4258 150.816 23.1914C151.236 25.0508 152.174 25.9805 153.633 25.9805C154.089 25.9805 154.535 25.8984 154.973 25.7344C156.066 25.3333 156.868 24.5768 157.379 23.4648L158.035 23.6836Z" fill="#28574E"/>
</svg>
